<?xml version="1.0" encoding="utf-8"?>
<!-- Generator: Adobe Illustrator 24.2.0, SVG Export Plug-In . SVG Version: 6.00 Build 0)  -->
<svg version="1.1" id="Layer_1" xmlns="http://www.w3.org/2000/svg" xmlns:xlink="http://www.w3.org/1999/xlink" x="0px" y="0px"
	 viewBox="0 0 130 90" style="enable-background:new 0 0 130 90;" xml:space="preserve">
<style type="text/css">
	.st0{fill:#4E7896;}
	.st1{fill:#F58219;}
</style>
<g>
	<path class="st0" d="M26.1,57.7c0,0-1.8,1.1,1.3,1.4c3.6,0.4,5.6,0.4,9.7-0.4c0,0,1.1,0.7,2.6,1.3C30.4,63.9,18.9,59.8,26.1,57.7
		L26.1,57.7z M24.9,52.7c0,0-1.9,1.5,1.1,1.8c3.9,0.4,7.1,0.4,12.4-0.6c0,0,0.7,0.7,1.9,1.2C29.4,58.3,17,55.4,24.9,52.7L24.9,52.7z
		 M46.4,61.5c0,0,1.3,1.1-1.5,1.9c-5.2,1.6-21.8,2-26.5,0c-1.6-0.7,1.5-1.7,2.4-1.9c1.1-0.2,1.6-0.2,1.6-0.2
		c-1.8-1.3-11.9,2.6-5.1,3.6C35.8,68.1,51.2,63.8,46.4,61.5L46.4,61.5z M26.9,47.4c0,0-8.5,2-3,2.8c2.3,0.3,6.9,0.2,11.2-0.1
		c3.5-0.3,7-1,7-1s-1.3,0.5-2.1,1.1c-8.6,2.2-25.2,1.3-20.4-1.1C23.6,47.2,26.9,47.4,26.9,47.4L26.9,47.4z M42.1,55.9
		c8.7-4.5,4.7-8.8,1.9-8.3c-0.7,0.1-1.1,0.3-1.1,0.3s0.2-0.4,0.7-0.6c5.5-1.9,9.9,5.9-1.8,8.8C41.9,56.1,42,56,42.1,55.9L42.1,55.9z
		 M27.8,68.1c8.4,0.5,21.2-0.3,21.5-4.3c0,0-0.6,1.6-6.9,2.8c-7.1,1.3-16.1,1.2-21.2,0.3C21.2,67,22.2,67.8,27.8,68.1L27.8,68.1z"/>
	<path class="st1" d="M36.8,21.7c0,0,4.8,4.9-4.6,12.2c-7.6,6-1.7,9.4,0,13.3c-4.5-3.9-7.7-7.4-5.4-10.7
		C30,31.7,38.7,29.5,36.8,21.7L36.8,21.7z M34.4,44.1c2.2,2.6-0.6,4.9-0.6,4.9s5.7-3,3.1-6.6c-2.4-3.5-4.3-5.2,5.9-11.1
		C42.7,31.3,26.7,35.2,34.4,44.1L34.4,44.1z"/>
	<path class="st0" d="M84.1,53.3V41.5c0-3-1.7-5.1-6-5.1c-2.4,0-4.5,0.6-6.3,1.3l0.6,2.1c1.3-0.5,3-1,4.8-1c2.3,0,3.4,1,3.4,2.9v1.7
		h-1.2c-5.7,0-8.4,2.1-8.4,5.6c0,2.9,1.8,4.6,5.1,4.6c2,0,3.6-1,5.1-2.1l0.2,1.8H84.1L84.1,53.3z M80.7,49.4
		c-1.2,1.1-2.6,1.7-3.7,1.7c-1.6,0-2.6-1-2.6-2.7c0-1.7,1-2.9,4.9-2.9h1.5L80.7,49.4L80.7,49.4L80.7,49.4z M95.4,53.3h-4.3L86,36.8
		h3.6l3.1,10.1l0.7,3c1.6-4.4,2.8-8.8,3.3-13.2h3.6C99.6,42.2,97.9,48.1,95.4,53.3L95.4,53.3z M115,53.3V41.5c0-3-1.7-5.1-6-5.1
		c-2.4,0-4.5,0.6-6.3,1.3l0.5,2.1c1.5-0.5,3.1-1,4.9-1c2.3,0,3.4,1,3.4,2.9v1.7h-1.2c-5.7,0-8.4,2.1-8.4,5.6c0,2.9,1.7,4.6,4.9,4.6
		c2.1,0,3.7-1,5.2-2.1l0.2,1.8H115L115,53.3z M111.6,49.4c-1.2,1.1-2.6,1.7-3.7,1.7c-1.6,0-2.6-1-2.6-2.7c0-1.7,1-2.9,4.8-2.9h1.5
		L111.6,49.4L111.6,49.4z M67.3,56.1c-1,1.5-2.4,2.6-4.3,3.1l-1.5-1.9c1.2-0.7,2.4-1.8,2.9-2.8c0.5-0.9,0.6-2,0.6-4.8V30.9h3.6v18.6
		C68.7,53.2,68.3,54.6,67.3,56.1L67.3,56.1z"/>
</g>
</svg>
