<?xml version="1.0" encoding="utf-8"?>
<!-- Generator: Adobe Illustrator 24.2.0, SVG Export Plug-In . SVG Version: 6.00 Build 0)  -->
<svg version="1.1" id="Layer_1" xmlns="http://www.w3.org/2000/svg" xmlns:xlink="http://www.w3.org/1999/xlink" x="0px" y="0px"
	 viewBox="0 0 130 90" style="enable-background:new 0 0 130 90;" xml:space="preserve">
<style type="text/css">
	.st0{fill:#231F20;stroke:#231F20;stroke-width:2.6563;}
	.st1{fill:#417BA2;}
	.st2{fill:none;stroke:#FFFFFF;stroke-width:0.8854;stroke-linecap:round;stroke-linejoin:round;}
	.st3{fill:none;stroke:#FFFFFF;stroke-width:0.8854;stroke-linecap:round;stroke-linejoin:bevel;}
	.st4{fill:none;stroke:#FFFFFF;stroke-width:0.8854;stroke-linejoin:round;}
	.st5{fill:#FFFFFF;stroke:#FFFFFF;stroke-width:0.2955;}
	.st6{fill:#FFFFFF;stroke:#FFFFFF;stroke-width:0.1472;}
</style>
<path class="st0" d="M77.8,57.4c0.3-2.9,0.2-3.3,2.4-2.9h0.5c1.7,0,3.8-0.3,5.1-0.9c2.7-1.2,4.3-3.4,1.7-2.7
	C81.4,52,81.1,50,81.1,50c6.5-9.6,9.1-21.8,6.9-24.7c-6.3-8.1-17.3-4.3-17.5-4.1l0,0c-1.2-0.2-2.6-0.3-4.1-0.3
	c-2.7,0-4.8,0.7-6.5,1.9c0,0-19.7-8.1-18.7,10.1c0.2,3.9,5.7,29.5,12,21.8c2.4-2.7,4.6-5.1,4.6-5.1c1.2,0.7,2.4,1.2,3.9,1l0.2-0.2
	c0,0.3,0,0.7,0,1c-1.7,1.9-1.2,2.2-4.5,2.9c-3.3,0.7-1.4,1.9-0.2,2.2c1.5,0.3,5.1,0.9,7.5-2.4l-0.2,0.3c0.7,0.5,0.7,3.8,0.7,6
	c0.2,2.2,0.2,4.5,0.7,5.7s1,4.5,5.3,3.6C74.9,68.8,77.6,67.8,77.8,57.4"/>
<path class="st1" d="M87.6,50.8c-6.2,1.2-6.5-0.9-6.5-0.9c6.5-9.6,9.1-21.8,6.9-24.7c-6.3-8.1-17.3-4.3-17.5-4.1l0,0
	c-1.2-0.2-2.6-0.3-4.1-0.3c-2.7,0-4.8,0.7-6.5,1.9c0,0-19.7-8.1-18.7,10.1c0.2,3.9,5.7,29.5,12,21.8c2.4-2.7,4.6-5.1,4.6-5.1
	c1.2,0.7,2.4,1.2,3.9,1l0.2-0.2c0,0.3,0,0.7,0,1c-1.7,1.9-1.2,2.2-4.5,2.9c-3.3,0.7-1.4,1.9-0.2,2.2c1.5,0.3,5.1,0.9,7.5-2.4
	l-0.2,0.3c0.7,0.5,1,3.4,1,6s-0.2,4.3,0.3,5.8c0.5,1.4,1,4.5,5.3,3.6c3.6-0.9,5.5-2.7,5.8-6.2c0.2-2.4,0.7-2.1,0.7-4.1l0.3-1
	c0.3-3.3,0-4.3,2.2-3.8h0.5c1.7,0,3.8-0.3,5.1-0.9C88.6,52.3,90.2,50.2,87.6,50.8L87.6,50.8z"/>
<g>
	<g>
		<path class="st2" d="M64.9,52.8c-0.2,6,0,12.2,0.7,13.5c0.5,1.5,1.9,4.3,6.2,3.4c3.6-0.9,5-2.2,5.5-5.7l1.4-10.6 M59.8,22.6
			c0,0-19.7-8.1-18.7,10.3c0.2,3.9,5.7,29.5,12,21.8c2.4-2.7,4.5-5,4.5-5 M70.4,21.1c-0.7,0.2,11-4.3,17.5,4.3
			c2.4,2.9-0.3,15.1-6.9,24.7"/>
		<path class="st3" d="M81,50c0,0,0.3,2.1,6.5,0.9c2.7-0.5,1,1.5-1.7,2.7c-2.2,1-7.2,1.4-7.4-0.2C78.5,49.9,81.2,51.1,81,50
			c-0.2-0.9-1.5-1.7-2.2-3.8c-0.7-1.7-10.1-15.4,2.6-13.4c0.5-0.2-3.3-12-15.1-12.2c-11.8-0.2-11.5,14.6-11.5,14.6"/>
	</g>
	<g>
		<path class="st4" d="M61.7,51.2c-1.7,1.9-1.2,2.2-4.5,2.9C54,54.8,55.8,56,57,56.4c1.5,0.3,5.1,0.9,7.5-2.4c0.7-1,0-2.7-1-3.1
			C63.2,50.6,62.5,50.4,61.7,51.2L61.7,51.2z"/>
		<path class="st2" d="M61.5,51.2c-0.2-1,0.3-2.4,0.9-3.9c0.9-2.2,2.7-4.5,1.2-11.7c-1.2-5.3-8.9-1.2-8.9-0.3c0,0.7,0.3,3.6-0.2,7.2
			c-0.7,4.5,2.9,8.2,6.9,7.9"/>
	</g>
</g>
<g>
	<path class="st5" d="M55.2,44.9c0,0.2,0.5,0.9,1,1c0.5,0.2,1.2-0.5,1.2-0.7c0-0.2-0.5-0.5-1-0.7C55.9,44.4,55.4,44.8,55.2,44.9
		L55.2,44.9z"/>
	<path class="st6" d="M74.8,44.4c0,0.2-0.5,0.9-1,1c-0.5,0.2-1.2-0.5-1.2-0.7s0.5-0.5,1-0.7C74.1,43.9,74.6,44.2,74.8,44.4
		L74.8,44.4z"/>
</g>
<path class="st2" d="M65.7,37.4c0.2,1.9-0.3,3.3-0.5,5.3c-0.2,3.1,1.4,6.5-0.9,9.9"/>
</svg>
