<?xml version="1.0" encoding="utf-8"?>
<!-- Generator: Adobe Illustrator 24.2.0, SVG Export Plug-In . SVG Version: 6.00 Build 0)  -->
<svg version="1.1" id="Layer_1" xmlns="http://www.w3.org/2000/svg" xmlns:xlink="http://www.w3.org/1999/xlink" x="0px" y="0px"
	 viewBox="0 0 110 90" style="enable-background:new 0 0 110 90;" xml:space="preserve">
<style type="text/css">
	.st0{fill:#0F80CC;}
	.st1{fill:url(#SVGID_1_);}
	.st2{fill:#003B57;}
</style>
<g id="Layer_2_1_">
	<g id="Layer_1-2">
		<g id="SQLite">
			<path class="st0" d="M67.9,22.2H36.4c-2.1,0-3.8,1.7-3.8,3.8v34.7c0,2.1,1.7,3.8,3.8,3.8c0,0,0,0,0,0h20.7
				C56.9,54.2,60.4,34.2,67.9,22.2z"/>
			
				<linearGradient id="SVGID_1_" gradientUnits="userSpaceOnUse" x1="-6.4117" y1="31.9237" x2="-6.4117" y2="38.5203" gradientTransform="matrix(4.88 0 0 4.88 81.517 -131.678)">
				<stop  offset="0" style="stop-color:#97D9F6"/>
				<stop  offset="0.92" style="stop-color:#0F80CC"/>
				<stop  offset="1" style="stop-color:#0F80CC"/>
			</linearGradient>
			<path class="st1" d="M66.7,23.3H36.4c-1.5,0-2.7,1.2-2.7,2.6l0,0v32.2c6.9-2.6,17.2-4.9,24.3-4.8C60.2,43.2,63.1,33.1,66.7,23.3z
				"/>
			<path class="st2" d="M75.2,21.1c-2.3-1.9-4.8-1.1-7.3,1.1l-1.1,1.1C62.3,28,58.3,36.7,57,43.3c0.5,1.1,0.9,2.2,1.1,3.3l0.2,0.7
				l0.2,0.8c0,0,0-0.2-0.2-0.6l-0.1-0.3L58.1,47c-0.3-0.7-1.1-2.1-1.4-2.7c-0.3,0.8-0.5,1.6-0.8,2.4c0.7,1.6,1.3,3.2,1.6,4.9
				c0,0,0-0.2-0.3-0.9c-0.5-1.1-1-2.1-1.6-3.1c-0.4,1-0.5,2-0.5,3.1c0.4,0.8,0.7,1.6,0.9,2.5c0.4,1.7,0.8,3.4,1,5.1v0.5
				c-0.1,1.9,0,3.8,0.1,5.7c0.1,1.9,0.4,3.8,1.1,5.6l0.3-0.2c-0.7-2.7-1-5.5-0.8-8.3c0.3-5.9,1.5-11.8,3.5-17.3
				c3.6-9.5,8.6-17.1,13.2-20.8c-4.1,3.8-9.8,16-11.5,20.5c-1.8,4.6-3.1,9.4-4,14.3c1.4-4.3,5.9-6.1,5.9-6.1s2.3-2.7,4.8-6.6
				l-4.9,1.3l-1.6,0.7c2.4-1.4,4.9-2.6,7.5-3.6C75.3,36.5,80.5,25.7,75.2,21.1"/>
		</g>
	</g>
</g>
</svg>
